<?xml version="1.0" encoding="UTF-8" standalone="no"?>
<!-- Created with Inkscape (http://www.inkscape.org/) -->

<svg
   xmlns:dc="http://purl.org/dc/elements/1.1/"
   xmlns:cc="http://creativecommons.org/ns#"
   xmlns:rdf="http://www.w3.org/1999/02/22-rdf-syntax-ns#"
   xmlns:svg="http://www.w3.org/2000/svg"
   xmlns="http://www.w3.org/2000/svg"
   xmlns:sodipodi="http://sodipodi.sourceforge.net/DTD/sodipodi-0.dtd"
   xmlns:inkscape="http://www.inkscape.org/namespaces/inkscape"
   version="1.0"
   width="450"
   height="450"
   viewBox="0 0 448.94922 449.99951"
   id="Layer_1"
   xml:space="preserve"
   style="overflow:visible"
   inkscape:version="0.48.2 r9819"
   sodipodi:docname="County_4_(MN).svg"><sodipodi:namedview
   pagecolor="#ffffff"
   bordercolor="#666666"
   borderopacity="1"
   objecttolerance="10"
   gridtolerance="10"
   guidetolerance="10"
   inkscape:pageopacity="0"
   inkscape:pageshadow="2"
   inkscape:window-width="1366"
   inkscape:window-height="706"
   id="namedview3015"
   showgrid="false"
   inkscape:zoom="1.1488889"
   inkscape:cx="225"
   inkscape:cy="225"
   inkscape:window-x="-8"
   inkscape:window-y="-8"
   inkscape:window-maximized="1"
   inkscape:current-layer="Layer_1" /><metadata
   id="metadata54"><rdf:RDF><cc:Work
       rdf:about=""><dc:format>image/svg+xml</dc:format><dc:type
         rdf:resource="http://purl.org/dc/dcmitype/StillImage" /><dc:title></dc:title></cc:Work></rdf:RDF></metadata><defs
   id="defs52" /><path
   d="M 93.995431,449.99951 1.2457531,128.33739 c -1.26711762,-4.39647 -1.9459481,-9.04101 -1.9459481,-13.84374 0,-21.00195 12.978533,-38.979 31.370093,-46.38477 L 177.40984,9.04785 C 191.89335,3.21288 207.72033,0 224.29955,0 c 16.57873,0 32.40573,3.21288 46.88971,9.04785 l 146.73995,59.06103 c 18.39156,7.40577 31.3701,25.38282 31.3701,46.38477 0,4.80273 -0.67835,9.44727 -1.94595,13.84374 l -92.74968,321.66212 -260.608249,0 0,0 z"
   id="path5"
   style="fill:#f7d117;fill-opacity:1;fill-rule:evenodd;stroke:none" /><path
   d="m 11.799791,114.70952 c 0,-15.909 9.822941,-29.55448 23.789925,-35.17823 L 182.00597,20.60016 c 13.04744,-5.25639 27.3172,-8.15718 42.29358,-8.15718 14.97639,0 29.24661,2.90079 42.2931,8.15718 l 146.41576,58.93113 c 13.96746,5.62375 23.79092,19.26923 23.79092,35.17823 0,3.66178 -0.51668,7.1818 -1.47383,10.50352 l -90.04582,312.28648 -241.95976,0 -90.046321,-312.28648 c -0.957144,-3.32124 -1.473808,-6.84174 -1.473808,-10.50352 z"
   id="path9"
   style="fill:#003882;fill-rule:evenodd" /><g
   transform="scale(1.0014541,0.99854802)"
   style="font-size:261.57354736px;font-style:normal;font-variant:normal;font-weight:normal;font-stretch:normal;text-align:center;line-height:100%;writing-mode:lr-tb;text-anchor:middle;fill:#ffffff;fill-opacity:1;font-family:Roadgeek 2005 Series D"
   id="text1361"><path
     d="m 283.56034,285.89745 c -1.4e-4,9.76543 -1.87472,18.74716 -5.62374,26.94524 -3.74928,8.19815 -9.02444,15.34788 -15.82549,21.44922 -6.80127,6.10137 -14.86634,10.85234 -24.19523,14.25292 -9.32907,3.40058 -19.57338,5.10087 -30.73298,5.10087 -7.67398,0 -15.21619,-0.87143 -22.62665,-2.6143 -7.41054,-1.74286 -14.16779,-4.1842 -20.27179,-7.32402 L 177.8868,319.121 c 3.66131,1.91585 8.45618,3.44052 14.38462,4.57402 5.92836,1.13355 12.11752,1.70032 18.56751,1.70029 6.27957,3e-5 12.16539,-1.00179 17.65749,-3.00544 5.49194,-2.0036 10.28814,-4.74961 14.38862,-8.23804 4.10029,-3.48835 7.28268,-7.62998 9.54718,-12.4249 2.26429,-4.79482 3.39649,-10.07131 3.3966,-15.82948 -1.1e-4,-4.35842 -0.82764,-8.36834 -2.48259,-12.02976 -1.65516,-3.66127 -3.92089,-6.88757 -6.79718,-9.67889 -2.87649,-2.79116 -6.18926,-4.97174 -9.93832,-6.54174 -3.74925,-1.56981 -7.80573,-2.35477 -12.16946,-2.35486 -3.13458,9e-5 -5.87925,0.26219 -8.23405,0.78628 -2.35493,0.52429 -4.57941,1.48353 -6.67344,2.87773 -2.09416,1.39438 -4.18693,3.26896 -6.27831,5.62373 -2.09149,2.35495 -4.44636,5.36305 -7.06459,9.02432 l -27.72354,-7.84689 4.4463,-90.50661 100.70837,0 0,27.73152 -73.76712,0 -1.82802,28.76926 c 6.44988,-1.91571 11.50551,-3.22219 15.16693,-3.91946 3.66127,-0.69702 7.67385,-1.04559 12.03774,-1.04572 8.01976,1.3e-4 15.56064,1.56871 22.62267,4.70574 7.06182,3.13728 13.25231,7.40929 18.57149,12.81605 5.31895,5.40698 9.50448,11.68528 12.55662,18.83493 3.05188,7.14982 4.57788,14.7346 4.57802,22.75437 z"
     style="fill:#ffffff"
     id="path3030" /></g>
<g
   id="text3991"
   style="font-size:74.62678528px;font-style:normal;font-variant:normal;font-weight:normal;font-stretch:normal;text-align:center;line-height:125%;letter-spacing:0px;word-spacing:0px;writing-mode:lr-tb;text-anchor:middle;fill:#f7d117;fill-opacity:1;stroke:none;font-family:Roadgeek 2014 Series D;-inkscape-font-specification:Roadgeek 2014 Series D"><path
     d="m 130.64819,114.85062 c -2.98511,7.36318 -8.00997,11.04476 -15.07461,11.04476 -3.73136,0 -6.81593,-0.72139 -9.25372,-2.16417 -2.43782,-1.44278 -4.45275,-3.70646 -6.04477,-6.79104 -1.144288,-2.23879 -2.039809,-4.85073 -2.686567,-7.83581 -0.646771,-2.98506 -0.970154,-6.04475 -0.970149,-9.179097 -5e-6,-3.980066 0.497507,-7.786029 1.492536,-11.417898 0.995016,-3.631797 2.36317,-6.567114 4.10447,-8.805961 1.49253,-1.840747 3.28357,-3.233779 5.37313,-4.1791 2.13928,-0.945222 4.62684,-1.417858 7.46268,-1.417909 3.78106,5.1e-5 6.89051,0.820945 9.32835,2.462684 2.48752,1.641836 4.57707,4.228895 6.26865,7.761186 l -7.38805,3.134325 c -0.69655,-1.044737 -1.34332,-1.915382 -1.9403,-2.611938 -0.54729,-0.696476 -1.14431,-1.243738 -1.79104,-1.641789 -0.59704,-0.397967 -1.26868,-0.671599 -2.01493,-0.820895 -0.69654,-0.149211 -1.51743,-0.223837 -2.46268,-0.22388 -2.03982,4.3e-5 -3.75623,0.472679 -5.14925,1.417909 -1.3433,0.945313 -2.43782,2.537349 -3.28358,4.776114 -0.64678,1.492571 -1.14429,3.258736 -1.49253,5.298502 -0.29852,2.039828 -0.44778,4.129376 -0.44776,6.26865 -2e-5,2.736337 0.27362,5.373147 0.82089,7.910437 0.54725,2.48758 1.31839,4.52737 2.31343,6.1194 0.89551,1.29354 1.94028,2.26369 3.13433,2.91044 1.19401,0.64678 2.66166,0.97016 4.40298,0.97015 1.69151,1e-5 3.15917,-0.44775 4.40298,-1.34328 1.24375,-0.94526 2.36315,-2.4378 3.3582,-4.47761 l 7.53731,2.83582 0,0"
     id="path5176"
     style="fill:#f7d117;font-family:Roadgeek 2005 Series D;-inkscape-font-specification:Roadgeek 2005 Series D" /><path
     d="m 175.93848,100.07452 c -4e-5,3.98011 -0.47267,7.78607 -1.4179,11.41789 -0.94532,3.63185 -2.2886,6.56717 -4.02985,8.80597 -2.7861,3.73134 -6.81594,5.597 -12.08954,5.597 -3.53235,0 -6.4428,-0.72139 -8.73133,-2.16417 -2.28857,-1.44278 -4.17911,-3.70646 -5.67164,-6.79104 -1.04478,-2.13929 -1.89055,-4.72635 -2.53731,-7.76119 -0.64677,-3.08455 -0.97015,-6.11937 -0.97015,-9.10446 0,-4.129323 0.47263,-7.960161 1.41791,-11.492529 0.99502,-3.532294 2.3383,-6.492487 4.02985,-8.880587 1.49252,-1.890498 3.25869,-3.28353 5.2985,-4.1791 2.08953,-0.945222 4.57709,-1.417858 7.46268,-1.417909 3.18405,5.1e-5 5.89548,0.721443 8.13432,2.164177 2.23877,1.442832 4.15419,3.706509 5.74626,6.791037 1.04474,2.238844 1.86563,4.850778 2.46268,7.835813 0.59698,2.985102 0.89548,6.044797 0.89552,9.179098 m -7.91043,0 c -4e-5,-2.835794 -0.24879,-5.447729 -0.74627,-7.835816 -0.49755,-2.437773 -1.24381,-4.502446 -2.23881,-6.194023 -0.79604,-1.293491 -1.71644,-2.238763 -2.76119,-2.835818 -0.99505,-0.596972 -2.23883,-0.94523 -3.73134,-1.044775 -1.94031,-0.09946 -3.55723,0.348301 -4.85074,1.343282 -1.29355,0.995064 -2.3632,2.611976 -3.20895,4.850741 -0.64678,1.492571 -1.14429,3.308488 -1.49254,5.447755 -0.29852,2.08958 -0.44777,4.179127 -0.44776,6.268654 -1e-5,2.68658 0.24875,5.27364 0.74627,7.76118 0.4975,2.48758 1.24377,4.52737 2.23881,6.1194 0.796,1.29354 1.74127,2.26369 2.83581,2.91044 1.09451,0.64678 2.43779,0.97016 4.02985,0.97015 1.84077,1e-5 3.35818,-0.4975 4.55223,-1.49253 1.24375,-0.99502 2.28853,-2.61193 3.13433,-4.85075 0.24872,-0.64675 0.49748,-1.41789 0.74627,-2.31343 0.24872,-0.94525 0.44773,-1.9154 0.59701,-2.91044 0.19897,-1.04476 0.34823,-2.08953 0.44776,-3.13433 0.0995,-1.04475 0.14922,-2.06465 0.14926,-3.05969"
     id="path5178"
     style="fill:#f7d117;font-family:Roadgeek 2005 Series D;-inkscape-font-specification:Roadgeek 2005 Series D" /><path
     d="m 221.04105,107.08943 c -4e-5,1.94032 -0.22392,3.78111 -0.67164,5.52239 -0.39805,1.7413 -0.94532,3.35821 -1.64179,4.85074 -0.64681,1.24378 -1.49258,2.38806 -2.53731,3.43283 -1.04481,0.99503 -2.21397,1.86567 -3.50746,2.61194 -1.29356,0.74627 -2.6866,1.3184 -4.1791,1.71641 -1.44281,0.44776 -2.93535,0.67164 -4.47761,0.67164 -1.54231,0 -3.05972,-0.22388 -4.55223,-0.67164 -1.44281,-0.39801 -2.81096,-0.97014 -4.10448,-1.71641 -1.29354,-0.74627 -2.48757,-1.61691 -3.58208,-2.61194 -1.04479,-1.04477 -1.89056,-2.18905 -2.53731,-3.43283 -0.69653,-1.49253 -1.24379,-3.10944 -1.64179,-4.85074 -0.39802,-1.74128 -0.59702,-3.58207 -0.59702,-5.52239 l 0,-32.089513 7.91044,0 0,32.089513 c -1e-5,3.2836 0.82088,5.89553 2.46269,7.83582 1.69152,1.9403 3.90544,2.91045 6.64178,2.91044 2.73629,1e-5 4.92534,-0.97014 6.56716,-2.91044 1.69151,-1.94029 2.53728,-4.55222 2.53731,-7.83582 l 0,-32.089513 7.91044,0 0,32.089513 0,0"
     id="path5180"
     style="fill:#f7d117;font-family:Roadgeek 2005 Series D;-inkscape-font-specification:Roadgeek 2005 Series D" /><path
     d="m 259.93909,124.99986 -19.10445,-33.880558 0,33.880558 -7.91044,0 0,-49.999943 7.91044,0 18.20893,31.940263 0,-31.940263 7.91044,0 0,49.999943 -7.01492,0"
     id="path5182"
     style="fill:#f7d117;font-family:Roadgeek 2005 Series D;-inkscape-font-specification:Roadgeek 2005 Series D" /><path
     d="m 293.76252,82.014834 0,42.985026 -7.91044,0 0,-42.985026 -11.4179,0 0,-7.014917 30.89549,0 0,7.014917 -11.56715,0"
     id="path5184"
     style="fill:#f7d117;font-family:Roadgeek 2005 Series D;-inkscape-font-specification:Roadgeek 2005 Series D" /><path
     d="m 334.5927,103.20884 0,21.79102 -7.91044,0 0,-21.79102 -17.5373,-28.208923 9.47761,0 11.94028,19.328337 12.08954,-19.328337 9.32835,0 -17.38804,28.208923"
     id="path5186"
     style="fill:#f7d117;font-family:Roadgeek 2005 Series D;-inkscape-font-specification:Roadgeek 2005 Series D" /></g></svg>