<?xml version="1.0" encoding="UTF-8" standalone="no"?>
<!-- Created with Inkscape (http://www.inkscape.org/) -->
<svg
   xmlns:dc="http://purl.org/dc/elements/1.1/"
   xmlns:cc="http://web.resource.org/cc/"
   xmlns:rdf="http://www.w3.org/1999/02/22-rdf-syntax-ns#"
   xmlns:svg="http://www.w3.org/2000/svg"
   xmlns="http://www.w3.org/2000/svg"
   xmlns:sodipodi="http://sodipodi.sourceforge.net/DTD/sodipodi-0.dtd"
   xmlns:inkscape="http://www.inkscape.org/namespaces/inkscape"
   version="1.0"
   width="601"
   height="601"
   viewBox="0 0 600 599.99902"
   id="Layer_1"
   xml:space="preserve"
   sodipodi:version="0.32"
   inkscape:version="0.45"
   sodipodi:docname="I-64 (KY).svg"
   sodipodi:docbase="C:\Documents and Settings\ltljltlj\Desktop"
   inkscape:output_extension="org.inkscape.output.svg.inkscape"
   sodipodi:modified="true"><metadata
   id="metadata36"><rdf:RDF><cc:Work
       rdf:about=""><dc:format>image/svg+xml</dc:format><dc:type
         rdf:resource="http://purl.org/dc/dcmitype/StillImage" /></cc:Work></rdf:RDF></metadata><sodipodi:namedview
   inkscape:window-height="965"
   inkscape:window-width="813"
   inkscape:pageshadow="2"
   inkscape:pageopacity="0.0"
   guidetolerance="10.0"
   gridtolerance="10.0"
   objecttolerance="10.0"
   borderopacity="1.0"
   bordercolor="#666666"
   pagecolor="#ffffff"
   id="base"
   width="601px"
   height="601px"
   inkscape:zoom="1.2133333"
   inkscape:cx="299.99999"
   inkscape:cy="299.99951"
   inkscape:window-x="460"
   inkscape:window-y="-2"
   inkscape:current-layer="Layer_1" /><defs
   id="defs1659">
	
	
	
	
</defs>
<g
   transform="matrix(0.9983361,0,0,0.9983377,0.4991681,0.4986859)"
   style="fill:#ffffff;fill-opacity:1;stroke:#000000;stroke-width:0.99999928;stroke-miterlimit:4;stroke-dasharray:none;stroke-opacity:1"
   id="g1600">
		<path
   id="path1602"
   style="fill:#ffffff;fill-opacity:1;stroke:#000000;stroke-width:0.99999928;stroke-miterlimit:4;stroke-dasharray:none;stroke-opacity:1"
   d="M 80.75293,0 C 115.42871,10.583496 152.23779,16.276856 190.37695,16.276856 C 228.51563,16.276856 265.32422,10.583496 300,0.0004883 C 334.67578,10.583496 371.48438,16.276856 409.62305,16.276856 C 447.76172,16.276856 484.57129,10.583496 519.24707,0 C 569.8125,63.908203 600,144.67822 600,232.5 C 600,413.92383 471.16992,565.25391 300,599.99902 C 128.83008,565.25391 0,413.92383 0,232.5 C 0,144.67822 30.187988,63.907715 80.75293,0 z " />
		
			<path
   id="path1604"
   style="fill:#ffffff;fill-opacity:1;stroke:#000000;stroke-width:0.99999928;stroke-linecap:round;stroke-linejoin:round;stroke-miterlimit:4;stroke-dasharray:none;stroke-opacity:1"
   d="M 80.75293,0 C 115.42871,10.583496 152.23779,16.276856 190.37695,16.276856 C 228.51563,16.276856 265.32422,10.583496 300,0.0004883 C 334.67578,10.583496 371.48438,16.276856 409.62305,16.276856 C 447.76172,16.276856 484.57129,10.583496 519.24707,0 C 569.8125,63.908203 600,144.67822 600,232.5 C 600,413.92383 471.16992,565.25391 300,599.99902 C 128.83008,565.25391 0,413.92383 0,232.5 C 0,144.67822 30.187988,63.907715 80.75293,0 z " />
	</g><g
   style="fill:#003f87;fill-opacity:1;stroke:none;stroke-opacity:1"
   transform="matrix(1.0070935,0,0,1.0102847,-2.1280324,-3.66885)"
   id="g1606">
		<path
   id="path1608"
   style="fill:#003f87;fill-opacity:1;stroke:none;stroke-opacity:1"
   d="M 15,232.5 C 15,200.521 19.169434,169.51611 26.994629,139.99902 L 573.00586,139.99902 C 580.83008,169.51611 585,200.521 585,232.5 C 585,405.60547 462.82617,550.17188 300,584.67676 C 137.17432,550.17188 15,405.60547 15,232.5 z " />
	</g><g
   style="fill:#af1e2d;fill-opacity:1;stroke:none;stroke-opacity:1"
   transform="matrix(1.0125461,0,0,1.0271486,-3.7638021,-3.1017482)"
   id="g1610">
		<path
   id="path1612"
   style="fill:#af1e2d;fill-opacity:1;stroke:none;stroke-opacity:1"
   d="M 31.324219,124.99902 C 43.579102,85.77832 62.362793,49.44043 86.402832,17.259766 C 119.50439,26.392578 154.37061,31.272461 190.37695,31.272461 C 228.4375,31.272461 265.22461,25.820801 300,15.654785 C 334.77539,25.820801 371.5625,31.272461 409.62305,31.272461 C 445.62891,31.272461 480.49609,26.392578 513.59766,17.259766 C 537.63672,49.44043 556.4209,85.77832 568.67578,124.99902 L 31.324219,124.99902 L 31.324219,124.99902 z " />
	</g>




<path
   transform="scale(0.9999958,1.0000042)"
   style="font-size:372.50445557px;font-style:normal;font-variant:normal;font-weight:normal;font-stretch:normal;text-align:center;line-height:125%;writing-mode:lr-tb;text-anchor:middle;fill:#ffffff;fill-opacity:1;font-family:Roadgeek 2005 Series D"
   d="M 272.34879,367.42147 C 272.3486,380.08542 270.23796,391.75649 266.01685,402.43471 C 261.79538,413.11302 255.89732,422.23957 248.32266,429.81437 C 240.74767,437.38922 231.68365,443.3498 221.13057,447.69613 C 210.57721,452.04247 198.96866,454.21564 186.3049,454.21564 C 176.11914,454.21564 166.61934,452.6014 157.80549,449.37291 C 148.99149,446.14442 140.92026,441.67493 133.59179,435.96443 C 126.26322,430.25395 119.99192,423.30058 114.77786,415.10427 C 109.56374,406.90803 105.71381,397.72086 103.22804,387.54271 L 141.96996,376.36803 C 144.95587,388.53178 150.42195,397.84211 158.3682,404.29905 C 166.31431,410.75607 176.24797,413.98456 188.16924,413.98453 C 194.86863,413.98456 200.95047,412.86672 206.41478,410.63099 C 211.87883,408.39533 216.53589,405.35442 220.38597,401.50822 C 224.23576,397.66212 227.27858,393.06948 229.51442,387.73028 C 231.74996,382.39121 232.86781,376.49315 232.86796,370.03609 C 232.86781,363.57919 231.62491,357.49357 229.13927,351.77919 C 226.65334,346.06502 223.17855,341.59363 218.71488,338.36503 C 217.22176,337.37234 215.91634,336.56522 214.79863,335.94366 C 213.68065,335.32233 212.3146,334.88845 210.70049,334.64203 C 209.08611,334.39584 206.97547,334.14764 204.36855,333.89743 C 201.76138,333.64745 198.09712,333.40115 193.37575,333.15852 L 188.90816,333.15852 L 188.90816,292.9274 L 188.90816,294.04146 L 190.02221,294.04146 L 190.7725,294.04146 L 198.59364,294.04146 C 206.54349,294.04161 212.62912,291.93097 216.85054,287.70952 C 221.07169,283.48839 223.18234,277.40276 223.18248,269.45262 C 223.18234,259.76733 219.76817,251.75863 212.93997,245.42649 C 206.11151,239.09476 197.60451,235.92879 187.41896,235.92858 C 170.78379,235.92879 158.24119,244.12507 149.7911,260.51742 L 112.91352,246.72812 C 119.37047,230.83596 129.11846,218.35777 142.15753,209.29351 C 155.19648,200.22973 169.91225,195.69772 186.3049,195.69746 C 196.73297,195.69772 206.60412,197.68521 215.91837,201.65994 C 225.23235,205.63517 233.3661,211.09936 240.31964,218.0525 C 247.27286,225.00611 252.73515,233.13797 256.70651,242.44809 C 260.67753,251.75863 262.66313,261.63167 262.66331,272.06724 C 262.66313,279.5172 261.67033,286.22238 259.68491,292.1828 C 257.69914,298.14354 253.97425,305.09502 248.51023,313.03727 C 253.23155,317.2587 257.08148,321.29431 260.06005,325.14412 C 263.03827,328.99419 265.45964,333.0298 267.32416,337.25097 C 269.18832,341.47237 270.49184,346.00439 271.23473,350.84702 C 271.97725,355.68986 272.3486,361.21467 272.34879,367.42147 L 272.34879,367.42147 z M 492.19326,357.73599 C 492.19307,371.64284 489.5235,384.43365 484.18455,396.10845 C 478.84523,407.78336 471.33293,417.96523 461.64762,426.65409 C 451.96199,435.34299 440.4766,442.1088 427.19141,446.95154 C 413.90597,451.79427 399.31714,454.21564 383.42487,454.21564 C 372.49642,454.21564 361.75563,452.97464 351.20246,450.49265 C 340.64919,448.01065 331.02624,444.53396 322.33359,440.06257 L 341.70455,405.04933 C 346.91859,407.77768 353.74693,409.94895 362.18957,411.56316 C 370.63208,413.17744 379.44601,413.98456 388.63138,413.98453 C 397.57406,413.98456 405.95601,412.55789 413.77725,409.7045 C 421.59827,406.85119 428.42849,402.94063 434.26795,397.97279 C 440.10714,393.00506 444.63915,387.107 447.864,380.2786 C 451.08855,373.45034 452.7009,365.93614 452.70106,357.73599 C 452.7009,351.5292 451.52243,345.81871 449.16563,340.60451 C 446.80853,335.39054 443.58193,330.796 439.48583,326.82089 C 435.38945,322.84603 430.67176,319.7407 425.33276,317.50487 C 419.9935,315.26931 414.2167,314.15147 408.00234,314.15133 C 403.53843,314.15147 399.62976,314.52471 396.27632,315.27107 C 392.92268,316.0177 389.75482,317.38375 386.77273,319.36921 C 383.79045,321.35494 380.81016,324.02451 377.83185,327.37792 C 374.85337,330.73158 371.49983,335.01539 367.77122,340.22937 L 328.29039,329.05469 L 334.62233,200.16506 L 478.04018,200.16506 L 478.04018,239.65726 L 372.98911,239.65726 L 370.38585,280.6273 C 379.57106,277.89916 386.77074,276.03861 391.98492,275.04564 C 397.19892,274.05302 402.91319,273.55662 409.12777,273.55644 C 420.54863,273.55662 431.28753,275.79041 441.34449,280.25784 C 451.40117,284.7256 460.21699,290.80933 467.79199,298.50906 C 475.36665,306.20908 481.32723,315.14995 485.67375,325.3317 C 490.0199,335.51369 492.19307,346.31511 492.19326,357.73599 L 492.19326,357.73599 z "
   id="text5085" />


<path
   style="font-size:93.21589661px;font-style:normal;font-variant:normal;font-weight:normal;font-stretch:normal;text-align:center;line-height:125%;writing-mode:lr-tb;text-anchor:middle;fill:#ffffff;fill-opacity:1;font-family:Roadgeek 2005 Series C"
   d="M 108.86859,112.81165 L 108.86859,50.416161 L 117.60967,50.416161 L 117.60967,112.81165 L 108.86859,112.81165 z M 159.56965,112.81165 L 140.31942,70.997717 L 140.31942,112.81165 L 131.39104,112.81165 L 131.39104,50.416161 L 140.31942,50.416161 L 157.42977,87.853449 L 157.42977,50.416161 L 166.35816,50.416161 L 166.35816,112.81165 L 159.56965,112.81165 z M 195.41654,58.706192 L 195.41654,112.81165 L 186.39735,112.81165 L 186.39735,58.706192 L 175.05098,58.706192 L 175.05098,50.416161 L 206.7629,50.416161 L 206.7629,58.706192 L 195.41654,58.706192 z M 215.30532,112.81165 L 215.30532,50.416161 L 244.59927,50.416161 L 244.59927,59.172274 L 224.2337,59.172274 L 224.2337,74.908269 L 237.16084,74.908269 L 237.16084,83.476813 L 224.2337,83.476813 L 224.2337,104.05837 L 247.01726,104.05837 L 247.01726,112.81165 L 215.30532,112.81165 z M 283.20473,112.81165 L 274.92624,83.476813 L 266.37247,83.476813 L 266.37247,112.81165 L 257.4441,112.81165 L 257.4441,50.416161 L 276.04442,50.416161 C 278.46238,50.416224 280.67885,50.819784 282.69389,51.62684 C 284.70884,52.434021 286.44475,53.551862 287.90163,54.980368 C 289.35844,56.408988 290.47425,58.162956 291.24907,60.242277 C 292.02379,62.321703 292.41119,64.60333 292.41123,67.087165 C 292.41119,70.812085 291.66716,73.978511 290.17914,76.586455 C 288.69102,79.19447 286.45894,81.056433 283.48285,82.172347 L 292.41123,112.81165 L 283.20473,112.81165 z M 283.67015,67.087165 C 283.67012,64.665853 282.92609,62.741367 281.43805,61.313699 C 279.94996,59.886136 277.99694,59.172328 275.579,59.172274 L 266.37247,59.172274 L 266.37247,74.908269 L 275.579,74.908269 C 278.18236,74.908307 280.18173,74.240918 281.57712,72.906101 C 282.97244,71.571363 283.67012,69.631721 283.67015,67.087165 L 283.67015,67.087165 z M 334.56419,95.768339 C 334.56416,98.31476 334.11481,100.6897 333.21614,102.89316 C 332.31739,105.09665 331.07766,107.00549 329.49693,108.61973 C 327.91613,110.23398 326.08704,111.52233 324.00964,112.48482 C 321.93219,113.4473 319.68449,113.92853 317.26652,113.92853 C 314.53824,113.92853 312.08951,113.40088 309.92033,112.34556 C 307.75114,111.29024 305.92252,109.86263 304.43447,108.0627 C 302.9464,106.26279 301.79937,104.18295 300.99337,101.82315 C 300.18737,99.463388 299.78437,97.011244 299.78438,94.466716 L 308.52546,94.466716 C 308.52544,95.770251 308.69573,97.058136 309.0363,98.330376 C 309.37684,99.602646 309.90376,100.75127 310.61707,101.77627 C 311.33035,102.80129 312.22952,103.62404 313.3146,104.24452 C 314.39964,104.86503 315.71694,105.17527 317.26652,105.17526 C 318.44523,105.17527 319.57711,104.92707 320.66221,104.43067 C 321.74724,103.93429 322.67716,103.25127 323.45197,102.38161 C 324.22672,101.51197 324.84634,100.50307 325.31087,99.354907 C 325.77533,98.206766 326.00757,97.011244 326.0076,95.768339 C 326.00757,93.968443 325.63579,92.37031 324.89226,90.973934 C 324.14867,89.577602 322.84697,88.165144 320.98716,86.736554 C 320.67685,86.425859 320.55292,86.254867 320.61538,86.223579 C 320.6778,86.192343 320.49191,86.021825 320.05771,85.712023 C 319.62347,85.402277 318.70868,84.796937 317.31335,83.896004 C 315.91798,82.995129 313.63953,81.459044 310.478,79.287747 C 307.93703,77.548497 306.03083,75.514594 304.75942,73.186035 C 303.48797,70.857556 302.85226,68.296942 302.85226,65.504186 C 302.85226,63.268552 303.25526,61.173074 304.06128,59.217745 C 304.86725,57.262525 305.99866,55.539819 307.45551,54.049621 C 308.91235,52.559541 310.60192,51.395283 312.52421,50.556838 C 314.44647,49.718521 316.52295,49.29933 318.75365,49.299267 C 320.98618,49.29933 323.04799,49.70289 324.93908,50.509945 C 326.83013,51.317127 328.47286,52.434967 329.86729,53.863473 C 331.26166,55.292095 332.37747,56.999643 333.21474,58.986126 C 334.0519,60.972715 334.50173,63.1454 334.56419,65.504186 L 326.0076,65.504186 C 325.88459,63.331075 325.14102,61.592738 323.77692,60.289169 C 322.41275,58.985706 320.73833,58.333948 318.75365,58.333894 C 316.70836,58.333948 314.97291,59.016967 313.54731,60.382954 C 312.12167,61.749046 311.40886,63.456122 311.40887,65.504186 C 311.40886,67.055948 311.81186,68.359465 312.61787,69.41474 C 313.42384,70.4701 314.97339,71.649518 317.26652,72.952995 C 323.28119,76.429707 327.6678,79.968432 330.42638,83.569177 C 333.1849,87.16998 334.56416,91.236364 334.56419,95.768339 L 334.56419,95.768339 z M 360.52064,58.706192 L 360.52064,112.81165 L 351.50144,112.81165 L 351.50144,58.706192 L 340.15508,58.706192 L 340.15508,50.416161 L 371.867,50.416161 L 371.867,58.706192 L 360.52064,58.706192 z M 406.44816,112.81165 L 402.07763,95.768339 L 388.68506,95.768339 L 384.59548,112.81165 L 375.57345,112.81165 L 391.10305,50.416161 L 399.84695,50.416161 L 415.37654,112.81165 L 406.44816,112.81165 z M 395.2891,69.042441 L 390.91856,87.015068 L 399.84695,87.015068 L 395.2891,69.042441 z M 439.53084,58.706192 L 439.53084,112.81165 L 430.51165,112.81165 L 430.51165,58.706192 L 419.16529,58.706192 L 419.16529,50.416161 L 450.87721,50.416161 L 450.87721,58.706192 L 439.53084,58.706192 z M 459.41964,112.81165 L 459.41964,50.416161 L 488.71358,50.416161 L 488.71358,59.172274 L 468.34802,59.172274 L 468.34802,74.908269 L 481.27515,74.908269 L 481.27515,83.476813 L 468.34802,83.476813 L 468.34802,104.05837 L 491.13157,104.05837 L 491.13157,112.81165 L 459.41964,112.81165 z "
   id="text6060" />


<path
   transform="scale(1.0000209,0.9999791)"
   style="font-size:55.87704086px;font-style:normal;font-variant:normal;font-weight:normal;font-stretch:normal;text-align:center;line-height:125%;writing-mode:lr-tb;text-anchor:middle;fill:#ffffff;fill-opacity:1;font-family:Roadgeek 2005 Series D"
   d="M 190.7336,187.69063 L 190.7336,166.01031 L 182.07273,187.69063 L 173.41185,166.01031 L 173.41185,187.69063 L 167.48788,187.69063 L 167.48788,150.25226 L 173.41185,150.25226 L 182.07273,171.26242 L 190.7336,150.25226 L 196.65587,150.25226 L 196.65587,187.69063 L 190.7336,187.69063 z M 205.57594,187.69063 L 205.57594,150.25226 L 211.61076,150.25226 L 211.61076,187.69063 L 205.57594,187.69063 z M 240.75488,187.69063 L 226.45139,162.32189 L 226.45139,187.69063 L 220.52741,187.69063 L 220.52741,150.25226 L 226.45139,150.25226 L 240.08472,174.16814 L 240.08472,150.25226 L 246.0087,150.25226 L 246.0087,187.69063 L 240.75488,187.69063 z M 275.13236,187.69063 L 260.82887,162.32189 L 260.82887,187.69063 L 254.90489,187.69063 L 254.90489,150.25226 L 260.82887,150.25226 L 274.4622,174.16814 L 274.4622,150.25226 L 280.38617,150.25226 L 280.38617,187.69063 L 275.13236,187.69063 z M 289.28237,187.69063 L 289.28237,150.25226 L 311.35489,150.25226 L 311.35489,156.17624 L 295.20634,156.17624 L 295.20634,165.34015 L 306.10277,165.34015 L 306.10277,171.37497 L 295.20634,171.37497 L 295.20634,181.65581 L 312.52809,181.65581 L 312.52809,187.69063 L 289.28237,187.69063 z M 341.71313,176.90674 C 341.7131,178.61994 341.39621,180.20296 340.76246,181.65581 C 340.12866,183.10867 339.21608,184.37509 338.02471,185.45507 C 336.98109,186.38613 335.76099,187.10318 334.36443,187.60622 C 332.96783,188.10926 331.46865,188.36078 329.86688,188.36078 C 326.62579,188.36078 323.85962,187.49481 321.56837,185.76286 C 319.2771,184.03092 317.49826,181.73085 316.23185,178.86264 L 321.87616,176.7942 C 322.65829,178.58242 323.73855,179.95144 325.11696,180.90125 C 326.49534,181.85107 328.07865,182.32597 329.86688,182.32597 C 331.61757,182.32597 333.02382,181.79508 334.08563,180.73328 C 335.1474,179.6715 335.67829,178.35847 335.67831,176.7942 C 335.67829,175.5653 335.35231,174.55979 334.70036,173.77764 C 334.04837,172.99552 333.20088,172.33418 332.15786,171.7936 C 331.11481,171.25306 329.96918,170.77787 328.72097,170.36803 C 327.47272,169.95822 326.23416,169.51117 325.00527,169.02686 C 324.44594,168.80407 323.75674,168.48775 322.93767,168.0779 C 322.11858,167.6681 321.32707,167.09997 320.56314,166.37352 C 319.79919,165.64712 319.14722,164.74363 318.60724,163.66306 C 318.06724,162.58253 317.79725,161.26013 317.79725,159.69583 C 317.79725,157.87127 318.09509,156.31638 318.69079,155.03117 C 319.28648,153.74603 320.09675,152.703 321.1216,151.90207 C 322.14644,151.10122 323.37591,150.51433 324.81002,150.14142 C 326.2441,149.76858 327.79899,149.58214 329.47468,149.5821 C 332.12004,149.58214 334.32746,150.27134 336.09695,151.6497 C 337.86639,153.02813 339.21664,154.89052 340.14773,157.23689 L 334.89561,158.80229 C 334.59774,158.20663 334.20668,157.66664 333.72241,157.18232 C 333.312,156.77196 332.74359,156.39908 332.01718,156.06369 C 331.29073,155.72836 330.40629,155.54249 329.36384,155.50608 C 328.6931,155.4686 327.99452,155.51492 327.26811,155.64506 C 326.54167,155.77525 325.89908,156.00802 325.34034,156.34335 C 324.78159,156.67874 324.33453,157.13518 323.99918,157.71265 C 323.66381,158.29018 323.53364,159.00752 323.60868,159.86465 C 323.68256,161.01855 324.18532,161.903 325.11696,162.51799 C 326.04857,163.13304 327.18482,163.66393 328.52572,164.11068 C 329.86658,164.55747 331.31006,165.01362 332.85615,165.47913 C 334.40221,165.94468 335.82693,166.61512 337.13032,167.49045 C 338.43366,168.36582 339.5233,169.5393 340.39925,171.0109 C 341.27514,172.48253 341.7131,174.44781 341.71313,176.90674 L 341.71313,176.90674 z M 373.75615,169.02686 C 373.75612,172.00763 373.40228,174.85763 372.69464,177.5769 C 371.98694,180.29618 370.98114,182.49422 369.67723,184.17103 C 367.59114,186.9642 364.57402,188.36078 360.62586,188.36078 C 357.98046,188.36078 355.80118,187.82079 354.088,186.74081 C 352.3748,185.66084 350.95946,183.96584 349.84197,181.65581 C 349.05983,180.05404 348.42663,178.1078 347.94234,175.8171 C 347.45805,173.52642 347.21591,171.26301 347.21592,169.02686 C 347.21591,165.93587 347.57913,163.06796 348.30556,160.42312 C 349.03198,157.77833 350.0284,155.56182 351.29483,153.77356 C 352.41232,152.35826 353.7441,151.30585 355.29019,150.61633 C 356.83625,149.92688 358.68927,149.58214 360.84924,149.5821 C 363.23314,149.58214 365.26322,150.12242 366.93948,151.20293 C 368.6157,152.28351 370.05008,153.97823 371.24263,156.28708 C 372.02474,157.96392 372.63919,159.91982 373.08599,162.15478 C 373.53273,164.38979 373.75612,166.68049 373.75615,169.02686 L 373.75615,169.02686 z M 367.83388,169.02686 C 367.83385,166.90444 367.6477,164.93973 367.27541,163.13273 C 366.90308,161.32578 366.34405,159.78908 365.59832,158.52264 C 365.0026,157.55409 364.32307,156.84642 363.55971,156.39962 C 362.79632,155.95288 361.85588,155.69198 360.7384,155.61692 C 359.28553,155.54306 358.07482,155.87842 357.10626,156.62301 C 356.13768,157.36766 355.33679,158.57837 354.70359,160.25515 C 354.21929,161.37267 353.85608,162.72293 353.61395,164.30593 C 353.37179,165.88898 353.25072,167.46262 353.25073,169.02686 C 353.25072,171.03905 353.43688,172.97648 353.80919,174.83915 C 354.18149,176.70184 354.73996,178.22887 355.48459,179.42025 C 356.0814,180.38883 356.78936,181.11526 357.60845,181.59954 C 358.42752,182.08383 359.43332,182.32597 360.62586,182.32597 C 362.00367,182.32597 363.14901,181.95367 364.0619,181.20904 C 364.97475,180.46443 365.74779,179.25372 366.38102,177.5769 C 366.56743,177.09262 366.75387,176.50602 366.94033,175.8171 C 367.12675,175.1282 367.28505,174.40177 367.41524,173.63781 C 367.54538,172.87388 367.6477,172.10084 367.72218,171.3187 C 367.79662,170.53658 367.83385,169.77264 367.83388,169.02686 L 367.83388,169.02686 z M 393.22308,155.50608 L 393.22308,187.69063 L 387.30081,187.69063 L 387.30081,155.50608 L 378.75078,155.50608 L 378.75078,150.25226 L 401.88395,150.25226 L 401.88395,155.50608 L 393.22308,155.50608 z M 429.43879,187.69063 L 425.75037,177.1864 L 414.07294,177.1864 L 410.38453,187.69063 L 404.07005,187.69063 L 416.97866,150.25226 L 422.84466,150.25226 L 435.75326,187.69063 L 429.43879,187.69063 z M 419.99521,160.64565 L 416.13968,171.15158 L 423.62736,171.15158 L 419.99521,160.64565 z "
   id="text2177" />

</svg>